<svg width="720" height="200" viewBox="0 0 720 200" fill="none" xmlns="http://www.w3.org/2000/svg">
<path d="M452.384 15.8029H522.57L574.325 74.8797L626.585 15.8029H697.528L616.739 99.1164L701.567 184.197H629.615L574.325 123.605L519.54 184.197H445.82L531.911 99.1164L452.384 15.8029Z" fill="white"/>
<path d="M261.859 15.8029H439.847V55.4399H313.11V87.2505H433.788L433.536 125.878H313.11V184.197H261.859V15.8029Z" fill="white"/>
<path d="M123.964 88.7653H241.36V93.3097C241.36 109.972 240.35 138.753 239.593 146.832C237.573 166.525 226.717 178.138 206.52 182.177C189.352 185.712 171.427 186.722 125.984 186.722C68.1692 186.722 50.2442 184.45 36.1061 174.856C26.7649 168.544 21.9681 159.203 19.9484 142.793C18.9385 135.471 18.4336 118.809 18.4336 97.3491C18.4336 51.6529 22.7255 34.9902 36.8635 25.1441C48.9819 16.5603 75.7432 13.2782 134.82 13.2782C197.431 13.2782 220.658 17.5702 231.767 30.6983C238.836 39.0297 240.855 49.3807 241.108 74.1223H189.857C189.605 64.2762 189.1 62.2565 185.818 59.9843C180.769 56.4498 168.903 55.4399 130.528 55.4399C69.9365 55.4399 69.684 55.6924 69.684 99.3688C69.684 127.897 71.1988 136.481 76.753 141.026C82.5597 145.57 82.5597 145.57 130.023 146.327C177.992 146.075 182.031 145.822 187.838 141.278C190.615 138.501 191.372 134.461 191.372 122.343H123.964V88.7653Z" fill="white"/>
</svg>
