<svg width="24" height="24" viewBox="0 0 24 24" fill="none" xmlns="http://www.w3.org/2000/svg">
<path d="M18.3793 9.36995C18.1355 9.1262 17.7394 9.1262 17.4957 9.36995C17.2519 9.6137 17.2519 10.0098 17.4957 10.2535L19.241 11.9997L17.4957 13.745C17.2519 13.9888 17.2519 14.3849 17.4957 14.6286C17.6176 14.7513 17.7769 14.8122 17.9371 14.8122C18.0972 14.8122 18.2566 14.7513 18.3793 14.6294L20.5669 12.4418C20.8107 12.198 20.8107 11.8019 20.5669 11.5582L18.3793 9.36995Z" fill="white"/>
<path d="M13.7449 17.495L11.9996 19.2411L10.2543 17.4958C10.0105 17.252 9.61443 17.252 9.37068 17.4958C9.12693 17.7395 9.12693 18.1356 9.37068 18.3794L11.5583 20.5671C11.6802 20.6889 11.8396 20.7499 11.9997 20.7499C12.1599 20.7499 12.3193 20.6889 12.4419 20.5671L14.6296 18.3794C14.8733 18.1356 14.8733 17.7395 14.6296 17.4958C14.3851 17.2513 13.9897 17.2513 13.7452 17.495L13.7449 17.495Z" fill="white"/>
<path d="M10.2542 6.50425L11.9995 4.75808L13.7449 6.50342C13.8675 6.62607 14.0269 6.68702 14.1871 6.68702C14.3472 6.68702 14.5066 6.62608 14.6292 6.5042C14.873 6.26045 14.873 5.86435 14.6292 5.6206L12.4416 3.43293C12.1978 3.18918 11.8017 3.18918 11.558 3.43293L9.37031 5.6206C9.12656 5.86435 9.12656 6.26045 9.37031 6.5042C9.61406 6.74795 10.0094 6.74795 10.2539 6.5042L10.2542 6.50425Z" fill="white"/>
<path d="M6.50432 9.36995C6.26057 9.1262 5.86447 9.1262 5.62072 9.36995L3.43306 11.5576C3.18931 11.8014 3.18931 12.1975 3.43306 12.4412L5.62072 14.6289C5.7426 14.7515 5.90197 14.8125 6.06212 14.8125C6.22227 14.8125 6.38166 14.7515 6.50431 14.6297C6.74806 14.3859 6.74806 13.9898 6.50431 13.7461L4.75814 11.9999L6.50347 10.2546C6.74801 10.01 6.74801 9.61471 6.50425 9.3702L6.50432 9.36995Z" fill="white"/>
<path d="M11.9996 8.7229C10.1932 8.7229 8.7229 10.1932 8.7229 11.9996C8.7229 13.8059 10.1932 15.2762 11.9996 15.2762C13.8059 15.2762 15.2762 13.8059 15.2762 11.9996C15.2762 10.1932 13.8059 8.7229 11.9996 8.7229ZM11.9996 14.0261C10.8824 14.0261 9.9729 13.1167 9.9729 11.9994C9.9729 10.8822 10.8823 9.97273 11.9996 9.97273C13.1168 9.97273 14.0262 10.8821 14.0262 11.9994C14.0262 13.1166 13.1169 14.0261 11.9996 14.0261Z" fill="white"/>
</svg>
