<svg width="24" height="24" viewBox="0 0 24 24" fill="none" xmlns="http://www.w3.org/2000/svg">
<path d="M3.48205 4.37891H20.5181C20.749 4.37891 20.9367 4.56659 20.9367 4.79809V19.2026C20.9367 19.434 20.749 19.6217 20.5181 19.6217H3.48205C3.2506 19.6217 3.06287 19.434 3.06287 19.2026V4.79809C3.06287 4.56664 3.25055 4.37891 3.48205 4.37891ZM3.90064 14.6285C5.41474 13.1844 7.25054 13.0263 9.11876 13.3284L9.13134 12.9951C9.17843 11.7628 9.22765 10.4599 9.05475 9.25607C7.13075 8.94691 5.27241 9.1685 3.90062 10.9623V14.6285L3.90064 14.6285ZM9.94882 13.4897C10.8178 13.6845 11.684 13.9527 12.519 14.211C13.2325 14.4315 13.9215 14.6449 14.5545 14.7921C14.5294 14.5162 14.5108 14.2361 14.5004 13.9521C14.4741 13.256 14.5031 12.5026 14.5327 11.7223C14.5447 11.3961 14.5579 11.0656 14.5661 10.7329C14.5184 10.7225 14.4703 10.7116 14.4221 10.7006C13.7398 10.5446 13.0196 10.3219 12.2732 10.091C11.5109 9.85516 10.7197 9.61055 9.92844 9.42832C10.0576 10.6059 10.0105 11.8448 9.96507 13.024C9.95908 13.1805 9.95302 13.3359 9.94809 13.4897L9.94882 13.4897ZM15.4115 14.9639C16.2219 15.1023 17.0076 15.1686 17.7514 15.1839C18.5946 15.2014 19.3864 15.1532 20.0994 15.0722V10.9946C19.3794 11.0734 18.5837 11.1183 17.735 11.1007C16.9902 11.0854 16.2055 11.022 15.3978 10.8911C15.3896 11.1806 15.3786 11.4679 15.3677 11.7519C15.3382 12.5174 15.3102 13.2567 15.3354 13.9226C15.3485 14.2772 15.3748 14.6246 15.4115 14.9644L15.4115 14.9639ZM20.0999 15.9128C19.3798 15.991 18.5841 16.0364 17.7354 16.0184C17.0312 16.0041 16.2914 15.9461 15.5302 15.829C15.5789 16.1239 15.6353 16.4129 15.6977 16.6936C15.8646 17.4443 16.0763 18.1453 16.3056 18.7828H20.1004V15.9128L20.0999 15.9128ZM14.6602 15.6709C14.5814 15.6539 14.5021 15.637 14.4227 15.6183C13.7403 15.4629 13.0202 15.2396 12.2737 15.0093C11.5104 14.7734 10.718 14.5283 9.92625 14.346C9.92239 14.6388 9.92352 14.9233 9.93391 15.1953C9.96015 15.9006 10.0384 16.5846 10.1522 17.2386C10.2469 17.7809 10.3656 18.2964 10.4991 18.7827H15.419C15.2182 18.1951 15.0338 17.5565 14.8822 16.8735C14.7963 16.4855 14.7208 16.0839 14.6601 15.6702L14.6602 15.6709ZM9.09352 14.1803C7.15584 13.8618 5.28109 14.0741 3.90064 15.8799V18.7834H9.63373C9.51611 18.3347 9.41155 17.8663 9.3273 17.3831V17.3815C9.20855 16.7007 9.12702 15.9801 9.09912 15.2249C9.08653 14.8889 9.08653 14.5398 9.09365 14.1808L9.09352 14.1803ZM3.90064 9.71014C5.34961 8.32789 7.09459 8.12388 8.87966 8.37386C8.53 7.03431 7.7962 5.88959 6.31711 5.21654H3.90064V9.71069V9.71014ZM9.79241 8.53695C10.7134 8.73396 11.6343 9.01849 12.5191 9.29208C13.2409 9.51534 13.9386 9.73092 14.5782 9.87871C14.5733 8.14683 14.3698 6.44171 13.3947 5.21599H7.91178C8.99085 6.08933 9.53254 7.2543 9.79246 8.53686L9.79241 8.53695ZM15.4138 10.0461C16.2236 10.1846 17.0084 10.2503 17.7514 10.2656C18.5946 10.2831 19.3864 10.235 20.0994 10.154V5.21598H14.4114C15.2617 6.60695 15.422 8.33059 15.4133 10.046L15.4138 10.0461Z" fill="white"/>
</svg>
