<svg width="24" height="24" viewBox="0 0 24 24" fill="none" xmlns="http://www.w3.org/2000/svg">
<path d="M5.23455 8.19329H13.0553C13.4064 8.19329 13.6897 7.90993 13.6897 7.55883C13.6897 7.20773 13.4064 6.92438 13.0553 6.92438H5.23455C4.88345 6.92438 4.6001 7.20773 4.6001 7.55883C4.6001 7.90993 4.88345 8.19329 5.23455 8.19329Z" fill="white"/>
<path d="M15.5973 9.56792C15.9484 9.56792 16.2318 9.28457 16.2318 8.93347V8.19327H18.7654C19.1165 8.19327 19.3998 7.90992 19.3998 7.55882C19.3998 7.20772 19.1165 6.92436 18.7654 6.92436H16.2318V6.18417C16.2318 5.83307 15.9484 5.54971 15.5973 5.54971C15.2462 5.54971 14.9629 5.83307 14.9629 6.18417V8.93347C14.9629 9.28457 15.2462 9.56792 15.5973 9.56792Z" fill="white"/>
<path d="M18.7647 11.3655H10.0981C9.74698 11.3655 9.46362 11.6489 9.46362 12C9.46362 12.3511 9.74698 12.6344 10.0981 12.6344H18.7647C19.1158 12.6344 19.3992 12.3511 19.3992 12C19.3992 11.6489 19.1158 11.3655 18.7647 11.3655Z" fill="white"/>
<path d="M5.23455 12.6345H7.25035V13.3218C7.25035 13.6729 7.53371 13.9562 7.88481 13.9562C8.23591 13.9562 8.51926 13.6729 8.51926 13.3218V10.5725C8.51926 10.2214 8.23591 9.93802 7.88481 9.93802C7.53371 9.93802 7.25035 10.2214 7.25035 10.5725V11.3655H5.23455C4.88345 11.3655 4.6001 11.6489 4.6001 12C4.6001 12.3511 4.88345 12.6345 5.23455 12.6345Z" fill="white"/>
<path d="M19.3998 16.4412C19.3998 16.0901 19.1165 15.8067 18.7654 15.8067H14.1169V15.0665C14.1169 14.7154 13.8336 14.4321 13.4825 14.4321C13.1314 14.4321 12.848 14.7154 12.848 15.0665V17.8158C12.848 18.1669 13.1314 18.4503 13.4825 18.4503C13.8336 18.4503 14.1169 18.1669 14.1169 17.8158V17.0756H18.7654C19.1165 17.0756 19.3998 16.7923 19.3998 16.4412Z" fill="white"/>
<path d="M5.23455 17.0756H10.9404C11.2915 17.0756 11.5749 16.7923 11.5749 16.4412C11.5749 16.0901 11.2915 15.8067 10.9404 15.8067H5.23455C4.88345 15.8067 4.6001 16.0901 4.6001 16.4412C4.6001 16.7923 4.88345 17.0756 5.23455 17.0756Z" fill="white"/>
</svg>
