<svg width="24" height="24" viewBox="0 0 24 24" fill="none" xmlns="http://www.w3.org/2000/svg">
<path d="M17.356 17.119C14.7032 17.119 12.5449 14.9607 12.5449 12.3079C12.5449 9.65512 14.7032 7.49683 17.356 7.49683C20.0088 7.49683 22.1671 9.65512 22.1671 12.3079C22.1671 14.9607 20.0088 17.119 17.356 17.119ZM17.356 9.10053C15.5869 9.10053 14.1486 10.5388 14.1486 12.3079C14.1486 14.077 15.5869 15.5153 17.356 15.5153C19.1251 15.5153 20.5634 14.077 20.5634 12.3079C20.5634 10.5388 19.1251 9.10053 17.356 9.10053Z" fill="white"/>
<path d="M11.409 17.0606C11.3639 17.0606 11.3188 17.0572 11.272 17.0489C11.1166 17.0222 10.963 16.9871 10.8143 16.947C10.3883 16.8267 10.1394 16.384 10.258 15.958C10.3783 15.5321 10.826 15.2831 11.2469 15.4018C11.3438 15.4285 11.4424 15.4502 11.5426 15.4686C11.9803 15.5438 12.2726 15.958 12.1975 16.3941C12.1307 16.785 11.7915 17.0606 11.4073 17.0606L11.409 17.0606ZM9.09363 15.7659C8.87313 15.7659 8.65262 15.674 8.49392 15.4953C8.39202 15.38 8.29513 15.2598 8.20325 15.1345C7.94265 14.777 8.0195 14.2758 8.37699 14.0136C8.73447 13.753 9.23564 13.8298 9.4979 14.1873C9.55971 14.2725 9.62486 14.3527 9.69335 14.4295C9.98737 14.7603 9.95563 15.2681 9.62486 15.5604C9.47285 15.6958 9.2824 15.7626 9.09365 15.7626L9.09363 15.7659ZM8.09132 13.3119C7.66702 13.3119 7.31117 12.9778 7.29114 12.5485C7.2878 12.47 7.28613 12.3898 7.28613 12.3096C7.28613 12.2378 7.2878 12.166 7.29114 12.0941C7.30785 11.6514 7.72215 11.3123 8.12307 11.3224C8.56577 11.3391 8.91156 11.7116 8.89317 12.1543L8.88983 12.308L8.89317 12.4717C8.91322 12.9144 8.57243 13.2886 8.12974 13.3103C8.11804 13.3119 8.10468 13.3119 8.09132 13.3119ZM8.84306 10.7677C8.68102 10.7677 8.51731 10.7193 8.37532 10.6174C8.01616 10.3584 7.9343 9.85729 8.19323 9.49813C8.28344 9.37117 8.38033 9.25089 8.4839 9.13395C8.77791 8.80152 9.28408 8.77144 9.61651 9.06379C9.94894 9.35613 9.98069 9.86396 9.68667 10.1947C9.61818 10.2716 9.5547 10.3517 9.49456 10.4336C9.33753 10.6508 9.09196 10.7677 8.84306 10.7677ZM11.0164 9.24923C10.6673 9.24923 10.3448 9.01703 10.2446 8.66288C10.1244 8.2369 10.3733 7.79421 10.8009 7.67393C10.9496 7.63217 11.0999 7.59709 11.2536 7.57036C11.688 7.49352 12.1056 7.78419 12.1824 8.22018C12.2592 8.65617 11.9686 9.07214 11.5326 9.14897C11.4307 9.16735 11.3304 9.18907 11.2336 9.21747C11.1617 9.23751 11.0882 9.24754 11.0164 9.24754L11.0164 9.24923Z" fill="white"/>
<path d="M6.48589 17.0606C6.44079 17.0606 6.39569 17.0572 6.34891 17.0489C6.19355 17.0222 6.03986 16.9871 5.89118 16.947C5.4652 16.8267 5.21627 16.384 5.3349 15.958C5.45518 15.5321 5.9029 15.2831 6.32385 15.4018C6.42075 15.4285 6.51931 15.4502 6.61954 15.4686C7.05721 15.5438 7.34954 15.958 7.27438 16.3941C7.20756 16.785 6.86843 17.0606 6.48422 17.0606L6.48589 17.0606ZM4.17054 15.7659C3.95003 15.7659 3.72952 15.674 3.57083 15.4953C3.46892 15.38 3.37203 15.2598 3.28016 15.1345C3.01955 14.777 3.0964 14.2758 3.45389 14.0136C3.81137 13.753 4.31255 13.8298 4.57481 14.1873C4.63662 14.2725 4.70177 14.3527 4.77026 14.4295C5.06427 14.7603 5.03253 15.2681 4.70177 15.5604C4.54975 15.6958 4.35931 15.7626 4.17055 15.7626L4.17054 15.7659ZM3.16822 13.3119C2.74392 13.3119 2.38808 12.9778 2.36805 12.5485C2.36471 12.47 2.36304 12.3898 2.36304 12.3096C2.36304 12.2378 2.36471 12.166 2.36805 12.0941C2.38475 11.6614 2.74057 11.3224 3.16822 11.3224H3.19996C3.64266 11.3391 3.98845 11.7116 3.97006 12.1543L3.96672 12.308L3.97006 12.4717C3.99011 12.9144 3.64932 13.2886 3.20663 13.3103C3.19493 13.3119 3.18159 13.3119 3.16822 13.3119ZM3.91997 10.7677C3.75793 10.7677 3.59422 10.7193 3.45222 10.6174C3.09306 10.3584 3.0112 9.85729 3.27013 9.49813C3.36034 9.37117 3.45723 9.25089 3.5608 9.13395C3.85649 8.80152 4.36098 8.77144 4.69341 9.06379C5.02584 9.35613 5.05759 9.86396 4.76357 10.1947C4.69508 10.2716 4.6316 10.3517 4.57146 10.4336C4.41444 10.6508 4.16886 10.7677 3.91997 10.7677ZM6.09331 9.24923C5.74417 9.24923 5.42175 9.01703 5.32153 8.66288C5.20126 8.2369 5.45016 7.79421 5.8778 7.67393C6.02648 7.63217 6.17683 7.59709 6.33051 7.57036C6.76486 7.49352 7.18247 7.78419 7.2593 8.22018C7.33614 8.65617 7.04548 9.07214 6.60948 9.14897C6.50758 9.16735 6.40735 9.18907 6.31046 9.21747C6.23863 9.23751 6.16513 9.24754 6.09329 9.24754L6.09331 9.24923Z" fill="white"/>
</svg>
