<?xml version="1.0" encoding="UTF-8"?><svg id="Layer_1" xmlns="http://www.w3.org/2000/svg" viewBox="0 0 20 20"><defs><style>.cls-1{fill:#fff;}</style></defs><path class="cls-1" d="M15.39,17.13H4.61c-.27,0-.48.22-.48.48s.22.48.48.48h10.78c.27,0,.48-.22.48-.48s-.22-.48-.48-.48Z"/><path class="cls-1" d="M17.02,15.31H2.98c-.27,0-.48.22-.48.48s.22.48.48.48h14.04c.27,0,.48-.22.48-.48s-.22-.48-.48-.48Z"/><path class="cls-1" d="M17.69,8.22c-.46-.47-1.05-.8-1.68-.96,0-.08,0-.16,0-.24,0-2.82-2.29-5.11-5.11-5.11-1.63,0-3.17.79-4.13,2.11-.17-.02-.33-.04-.49-.04-1.88,0-3.41,1.53-3.41,3.41,0,.12,0,.25.02.36-.2.14-.4.29-.57.47-.7.7-1.08,1.63-1.08,2.62s.38,1.92,1.08,2.62c.7.7,1.63,1.08,2.62,1.08h10.15c.99,0,1.92-.38,2.62-1.08.7-.7,1.08-1.63,1.08-2.62s-.38-1.92-1.08-2.62ZM3.83,7.39c0-1.35,1.1-2.45,2.45-2.45.2,0,.41.02.6.07.21.05.41-.03.53-.21.77-1.21,2.08-1.93,3.51-1.93,2.29,0,4.14,1.86,4.14,4.14,0,.19-.01.38-.04.56h0c-.02.13.02.26.09.36.08.1.2.17.32.18.6.08,1.16.35,1.58.78.51.51.8,1.21.8,1.93s-.29,1.42-.8,1.93c-.51.51-1.21.8-1.93.8H4.93c-.72,0-1.42-.29-1.93-.8-.51-.51-.8-1.21-.8-1.93s.29-1.42.8-1.93c.19-.19.41-.35.64-.48.19-.1.29-.32.25-.53-.04-.17-.05-.34-.05-.51Z"/></svg>