<?xml version="1.0" encoding="UTF-8"?><svg id="Layer_1" xmlns="http://www.w3.org/2000/svg" viewBox="0 0 20 20"><defs><style>.cls-1{fill:#fff;}</style></defs><path class="cls-1" d="M8.33,16.77H2.08c-.2,0-.35-.16-.35-.35v-2.5c0-.26-.21-.48-.48-.48s-.48.21-.48.48v2.5c0,.72.59,1.31,1.31,1.31h6.25c.26,0,.48-.21.48-.48h0c0-.26-.21-.48-.48-.48Z"/><path class="cls-1" d="M1.25,6.56c.26,0,.48-.21.48-.48v-2.5c0-.2.16-.35.35-.35h6.25c.26,0,.48-.21.48-.48,0-.22-.15-.4-.35-.46l.02-.02H2.08c-.72,0-1.31.59-1.31,1.31v2.5c0,.26.21.48.48.48Z"/><path class="cls-1" d="M11.67,3.23h6.25c.2,0,.35.16.35.35v2.5c0,.26.21.48.48.48s.48-.21.48-.48v-2.5c0-.72-.59-1.31-1.31-1.31h-6.25c-.26,0-.48.21-.48.48s.21.48.48.48Z"/><path class="cls-1" d="M18.75,13.44h-.03c-.25.02-.45.22-.45.48v2.5c0,.2-.16.35-.35.35h-6.25c-.26,0-.48.21-.48.48s.21.48.48.48h6.25c.72,0,1.31-.59,1.31-1.31v-2.5c0-.26-.21-.48-.48-.48Z"/><path class="cls-1" d="M9.88,5.94h-2.58c-2.24,0-4.06,1.82-4.06,4.06s1.82,4.06,4.06,4.06c.23,0,.41-.18.41-.41s-.18-.41-.41-.41c-1.78,0-3.24-1.45-3.24-3.24s1.45-3.24,3.24-3.24h2.58l-.78.78c-.08.08-.12.18-.12.29s.04.21.12.29c.16.16.42.16.57,0l1.48-1.48c.16-.16.16-.41,0-.57l-1.48-1.48c-.16-.16-.41-.16-.57,0-.08.08-.12.18-.12.29s.04.21.12.29l.78.78Z"/><path class="cls-1" d="M11.16,14.84l-.78-.78h2.31c2.24,0,4.06-1.82,4.06-4.06s-1.82-4.06-4.06-4.06c-.23,0-.41.18-.41.41s.18.41.41.41c1.78,0,3.24,1.45,3.24,3.24s-1.45,3.24-3.24,3.24h-2.31l.78-.78c.08-.08.12-.18.12-.29s-.04-.21-.12-.29c-.16-.16-.41-.16-.57,0l-1.48,1.48c-.08.08-.12.18-.12.29s.04.21.12.29l1.47,1.48c.08.08.18.12.29.12s.21-.04.29-.12c.16-.16.16-.41,0-.57Z"/></svg>