<svg width="24" height="24" viewBox="0 0 24 24" fill="none" xmlns="http://www.w3.org/2000/svg">
<path d="M8.98483 20.5879C9.33451 20.6727 9.75488 20.7547 10.1696 20.7547C10.6597 20.7547 11.147 20.6388 11.5089 20.2816C12.2252 19.57 11.9623 18.4455 11.7313 17.4539C11.6493 17.1014 11.5164 16.5349 11.5381 16.2889C11.6512 16.2814 11.9189 16.3012 12.4571 16.4793C14.5852 17.189 16.7371 17.0345 18.3592 16.0571C19.7155 15.2418 20.61 13.9024 20.8784 12.2908C21.2092 10.3077 20.6032 8.28499 19.1705 6.59417C17.4212 4.52915 14.6587 3.2453 11.9611 3.2453C7.03922 3.2453 3.03345 7.25107 3.03345 12.1729C3.03345 16.2071 5.5358 19.7471 8.98641 20.5888L8.98483 20.5879ZM11.9595 4.69209C14.2423 4.69209 16.5798 5.78071 18.0643 7.53003C19.2179 8.89105 19.7099 10.4981 19.4488 12.0542C19.249 13.2578 18.6119 14.2135 17.61 14.8167C16.3508 15.5745 14.6373 15.6801 12.9123 15.1042C12.196 14.8657 11.1724 14.6169 10.5334 15.1984C9.85763 15.8139 10.0923 16.8149 10.3185 17.7828C10.4175 18.2022 10.6229 19.0788 10.4872 19.2522C10.4872 19.2522 10.2554 19.4087 9.32413 19.1825C6.51535 18.4973 4.47667 15.5489 4.47667 12.1729C4.47667 8.04927 7.83298 4.69296 11.9566 4.69296L11.9595 4.69209Z" fill="white"/>
<path d="M8.34012 13.1382C8.34012 14.7471 5.92725 14.7471 5.92725 13.1382C5.92725 11.5293 8.34012 11.5293 8.34012 13.1382Z" fill="white"/>
<path d="M9.788 9.51881C9.788 11.1277 7.37512 11.1277 7.37512 9.51881C7.37512 7.90991 9.788 7.90991 9.788 9.51881Z" fill="white"/>
<path d="M13.4073 7.58851C13.4073 9.19742 10.9944 9.19742 10.9944 7.58851C10.9944 5.97961 13.4073 5.97961 13.4073 7.58851Z" fill="white"/>
<path d="M17.0266 9.76021C17.0266 11.3691 14.6138 11.3691 14.6138 9.76021C14.6138 8.1513 17.0266 8.1513 17.0266 9.76021Z" fill="white"/>
</svg>
