<?xml version="1.0" encoding="UTF-8"?><svg id="Layer_1" xmlns="http://www.w3.org/2000/svg" viewBox="0 0 20 20"><defs><style>.cls-1{fill:#fff;}</style></defs><path class="cls-1" d="M6.58,14.07c-2.25,0-4.07-1.83-4.07-4.07s1.83-4.07,4.07-4.07h3.17l-.91.91c-.11.11-.17.25-.17.4s.06.29.17.4c.22.22.58.22.79,0l1.88-1.88c.23-.23.23-.57,0-.8l-1.88-1.88c-.23-.23-.57-.23-.8,0-.23.23-.23.57,0,.8l.91.91h-3.17c-2.87,0-5.21,2.33-5.21,5.21s2.33,5.21,5.21,5.21c.31,0,.57-.25.57-.57s-.25-.57-.57-.57Z"/><path class="cls-1" d="M13.42,4.79c-.31,0-.57.25-.57.57s.25.57.57.57c2.25,0,4.07,1.83,4.07,4.07s-1.83,4.07-4.07,4.07h-2.84l.91-.91c.11-.11.17-.25.17-.4s-.06-.29-.17-.4c-.22-.22-.58-.22-.8,0l-1.88,1.88c-.23.23-.23.57,0,.8l1.88,1.88c.11.11.25.17.4.17s.29-.06.4-.17c.11-.11.17-.25.17-.4s-.06-.29-.17-.4l-.91-.91h2.84c2.87,0,5.21-2.33,5.21-5.21s-2.33-5.21-5.21-5.21Z"/></svg>