<?xml version="1.0" encoding="UTF-8"?><svg id="Layer_1" xmlns="http://www.w3.org/2000/svg" viewBox="0 0 20 20"><defs><style>.cls-1{fill:#fff;}</style></defs><path class="cls-1" d="M9.54,11.45v2.28l-.24-.24c-.18-.18-.47-.18-.65,0s-.18.47,0,.65l1.03,1.03c.06.06.14.11.23.12h.03s.04.01.07.01c.12,0,.24-.05.33-.13l1.03-1.03c.18-.18.18-.47,0-.65-.18-.18-.47-.18-.65,0l-.24.24v-2.28c0-.25-.21-.46-.46-.46s-.46.21-.46.46Z"/><path class="cls-1" d="M18.5,5.36c0-.17-.09-.32-.23-.4L10.26.34l-.03.05h0l.03-.06c-.15-.11-.37-.1-.52,0L1.77,4.94c-.17.08-.27.24-.27.42v9.28c0,.14.07.28.18.36.02.02.04.03.07.04l8.03,4.64c.07.04.15.06.23.06s.16-.02.23-.06l8-4.62c.16-.08.27-.24.27-.42V5.36ZM17.12,14.64l-7.12,4.11-7.12-4.11,7.12-4.11,7.12,4.11ZM9.54,1.52v8.22l-7.11,4.11V5.63L9.54,1.52ZM17.58,5.63v8.22l-7.11-4.11V1.52l7.11,4.11Z"/><path class="cls-1" d="M11.33,9.61s.08.02.12.02c.08,0,.16-.02.23-.06l1.78-1.03-.09.33c-.07.25.08.5.33.57.12.03.24.02.35-.05.11-.06.18-.16.22-.28l.38-1.4c.03-.12.02-.24-.05-.35-.06-.11-.16-.18-.28-.21l-1.4-.38c-.24-.07-.5.08-.57.33-.07.25.08.5.33.57l.33.09-1.78,1.03c-.11.06-.18.16-.21.28-.03.12-.02.24.04.35.06.11.16.18.28.21Z"/><path class="cls-1" d="M5.74,9.1c.03.12.11.22.22.28.11.06.23.08.35.05s.22-.11.28-.21c.06-.11.08-.23.05-.35l-.09-.33,1.78,1.03c.07.04.15.06.23.06.16,0,.31-.08.4-.23.13-.22.05-.5-.17-.63l-1.78-1.03.33-.09c.25-.07.39-.32.33-.57-.07-.25-.32-.39-.57-.33l-1.4.38c-.25.07-.39.32-.33.57l.38,1.4Z"/></svg>