<svg width="24" height="24" viewBox="0 0 24 24" fill="none" xmlns="http://www.w3.org/2000/svg">
<path d="M4.32849 19.4421H18.084C18.4101 19.4421 18.6742 19.178 18.6742 18.852V11.2572C18.6742 10.9311 18.4101 10.6671 18.084 10.6671C17.921 10.6671 17.7735 10.7335 17.6665 10.8397C17.5596 10.9466 17.4939 11.0942 17.4939 11.2572V13.2562L15.4249 11.8672C15.2095 11.7219 14.9226 11.7351 14.7205 11.9018L13.1943 13.161L9.39479 9.0488C9.17497 8.81054 8.8032 8.79431 8.56421 9.01265L4.91875 12.3289V6.312H12.543C12.706 6.312 12.8535 6.24561 12.9605 6.13864C13.0674 6.03168 13.1331 5.88416 13.1331 5.72189C13.1331 5.39585 12.869 5.13177 12.543 5.13177H4.32864C4.0026 5.13177 3.73853 5.39585 3.73853 5.72189V18.8518C3.73853 19.1778 4.0026 19.4419 4.32864 19.4419L4.32849 19.4421ZM8.92553 10.2798L12.2832 13.9133L10.6375 15.272C10.386 15.4801 10.3505 15.8518 10.5586 16.1034C10.6751 16.2442 10.844 16.3173 11.0137 16.3173C11.1457 16.3173 11.2785 16.273 11.3891 16.1823L15.1326 13.0923L17.4946 14.6782V18.2623L4.91853 18.2616V13.9234L8.92553 10.2798Z" fill="white"/>
<path d="M12.4764 10.1576C12.4764 10.4836 12.7435 10.7477 13.0695 10.7477C13.3955 10.7477 13.6596 10.4836 13.6596 10.1576C13.6596 9.83151 13.3955 9.56744 13.0695 9.56744H13.0636C12.7383 9.56744 12.4764 9.83151 12.4764 10.1576Z" fill="white"/>
<path d="M12.7325 7.3096C12.7325 7.52572 12.8506 7.72416 13.0401 7.82816L14.0846 8.39688C14.6445 8.70226 15.1026 9.15812 15.4094 9.71725L15.9796 10.7551C16.0836 10.9432 16.2813 11.0605 16.4967 11.0605C16.7121 11.0605 16.9105 10.9432 17.0145 10.7544L17.2152 10.3892L17.584 9.71651C17.8908 9.15812 18.3497 8.70152 18.9088 8.39688L19.9533 7.82816C20.1436 7.72415 20.2616 7.52572 20.2616 7.3096C20.2616 7.09348 20.1436 6.89504 19.954 6.79104L18.9095 6.22232C18.3497 5.91768 17.8916 5.46107 17.5855 4.90269L17.0153 3.86483C16.9113 3.676 16.7136 3.55872 16.4975 3.55872C16.2821 3.55872 16.0844 3.676 15.9804 3.86483L15.4095 4.90343C15.1033 5.46109 14.6453 5.91768 14.0854 6.22232L13.4119 6.58966L13.0409 6.79178C12.8506 6.89431 12.7326 7.09348 12.7326 7.3096H12.7325ZM14.6495 7.2587C15.4086 6.84488 16.0289 6.22675 16.4435 5.47075L16.4973 5.37412L16.5504 5.47075C16.9657 6.22757 17.5861 6.8457 18.3444 7.2587L18.438 7.3096L18.3444 7.35976C17.5868 7.77283 16.9657 8.39097 16.5496 9.14771L16.4973 9.24434L16.4442 9.14845C16.0289 8.39163 15.4085 7.77349 14.6494 7.35971L14.5558 7.30955L14.6495 7.2587Z" fill="white"/>
</svg>
