<svg width="24" height="24" viewBox="0 0 24 24" fill="none" xmlns="http://www.w3.org/2000/svg">
<path d="M12.3045 8.17511C10.3888 8.86183 8.86767 10.3891 8.18567 12.3119H9.45052C10.0154 11.0369 11.0365 10.0103 12.3045 9.44228L12.3045 8.17511Z" fill="white"/>
<path d="M15.8333 7.89396V9.09553C18.3333 9.66584 20.2037 11.9159 20.2037 14.5955C20.2037 17.7049 17.6833 20.2354 14.5857 20.2354C11.9138 20.2354 9.67251 18.3534 9.10601 15.8415H7.90601C8.49037 19.0072 11.2638 21.4119 14.5857 21.4119C18.3317 21.4119 21.3795 18.354 21.3795 14.5955C21.3795 11.2635 18.9857 8.48369 15.8327 7.89386L15.8333 7.89396Z" fill="white"/>
<path d="M14.6575 12.2625V4.9898C14.6575 3.66558 13.5801 2.58813 12.2558 2.58813H5.02215C3.69793 2.58813 2.62048 3.66548 2.62048 4.9898V12.2631C2.62048 13.5874 3.69783 14.6648 5.02215 14.6648H12.255C13.5792 14.6648 14.6567 13.5875 14.6567 12.2631L14.6575 12.2625ZM3.79732 12.2625V4.9898C3.79732 4.31402 4.34653 3.7648 5.02232 3.7648H12.2552C12.9309 3.7648 13.4802 4.31402 13.4802 4.9898V12.2631C13.4802 12.9389 12.9309 13.4881 12.2552 13.4881L5.02232 13.4874C4.34653 13.4874 3.79732 12.9381 3.79732 12.2624V12.2625Z" fill="white"/>
</svg>
