<?xml version="1.0" encoding="UTF-8"?><svg id="Layer_1" xmlns="http://www.w3.org/2000/svg" viewBox="0 0 20 20"><defs><style>.cls-1{fill:#fff;}</style></defs><path class="cls-1" d="M5.39,5.35c.1.1.23.15.35.15s.26-.05.35-.15c.09-.1.15-.22.15-.35s-.05-.26-.15-.35l-1.06-1.06c-.19-.19-.51-.19-.71,0-.2.2-.2.51,0,.71l1.06,1.06Z"/><path class="cls-1" d="M10,3.73c.28,0,.5-.22.5-.5v-1.5c0-.28-.22-.5-.5-.5s-.5.22-.5.5v1.5c0,.28.22.5.5.5Z"/><path class="cls-1" d="M14.25,5.49c.13,0,.25-.05.35-.15l1.06-1.06c.2-.2.2-.51,0-.71-.19-.19-.52-.19-.71,0l-1.06,1.06c-.2.2-.2.51,0,.71.1.1.23.15.35.15Z"/><path class="cls-1" d="M17.52,8.75h-1.5c-.28,0-.5.22-.5.5s.22.5.5.5h1.5c.28,0,.5-.22.5-.5s-.22-.5-.5-.5Z"/><path class="cls-1" d="M10,4.23c-3.1,0-5.01,2.49-5.01,4.8,0,1.77.68,2.87,1.32,3.77l.16.23c.54.75.97,1.35.97,2.23v2.26c0,.69.56,1.25,1.25,1.25h2.63c.69,0,1.25-.56,1.25-1.25v-2.26c0-.88.43-1.47.96-2.23l.17-.23c.64-.9,1.31-2.01,1.31-3.77,0-2.31-1.92-4.8-5.01-4.8ZM14.01,9.03c0,1.48-.51,2.32-1.13,3.2l-.15.22c-.49.68-.99,1.38-1.12,2.32h-3.21c-.14-.94-.64-1.64-1.12-2.32l-.15-.22c-.62-.88-1.13-1.72-1.13-3.2,0-2.34,2.08-3.79,4.01-3.79s4.01,1.45,4.01,3.79ZM11.57,17.27v.25c0,.16-.13.25-.25.25h-2.63c-.12,0-.25-.09-.25-.25v-.25h3.13ZM11.57,15.77v.5h-3.13v-.5h3.13Z"/><path class="cls-1" d="M3.98,8.75h-1.5c-.28,0-.5.22-.5.5s.22.5.5.5h1.5c.28,0,.5-.22.5-.5s-.22-.5-.5-.5Z"/></svg>